# Blender v3.2.0 OBJ File: 'diamond.blend'
# www.blender.org
o diamond
v 0.009283 0.049968 -0.016078
v 0.018565 0.049968 0.000000
v 0.009283 0.049968 0.016078
v -0.000000 0.000000 -0.000000
v -0.009283 0.049968 0.016078
v -0.018565 0.049968 -0.000000
v -0.009283 0.049968 -0.016078
v 0.015432 0.035469 -0.026729
v 0.030864 0.035469 0.000000
v 0.015432 0.035469 0.026729
v -0.015432 0.035469 0.026729
v -0.030864 0.035469 -0.000000
v -0.015432 0.035469 -0.026729
vt 0.207705 0.630501
vt 0.264165 0.465312
vt 0.434626 0.465312
vt 0.491086 0.630501
vt 0.549453 0.596803
vt 0.519856 0.317689
vt 0.691144 0.351387
vt 0.691144 0.283991
vt 0.434626 0.170066
vt 0.549453 0.038575
vt 0.491086 0.004877
vt 0.264165 0.170066
vt 0.207705 0.004877
vt 0.178935 0.317689
vt 0.149338 0.038575
vt 0.007647 0.283991
vt 0.007647 0.351387
vt 0.149338 0.596802
vt 0.850678 0.968663
vt 0.708981 0.560883
vt 0.992362 0.560879
vt 0.091320 0.836565
vt 0.499104 0.694859
vt 0.499113 0.978245
vt 0.412662 0.714559
vt 0.004878 0.856244
vt 0.004883 0.572863
vt 0.654859 0.434882
vt 0.796545 0.842652
vt 0.513171 0.842652
vt 0.747125 0.412660
vt 0.605433 0.004877
vt 0.888816 0.004877
vt 0.851199 0.142878
vt 0.992887 0.550651
vt 0.709511 0.550651
vn 0.6980 0.5920 -0.4030
vn 0.6980 0.5920 0.4030
vn -0.0000 0.5920 0.8059
vn -0.6980 0.5920 0.4030
vn 0.0000 1.0000 0.0000
vn -0.6980 0.5920 -0.4030
vn -0.0000 0.5920 -0.8059
vn -0.0000 -0.6018 -0.7986
vn -0.6916 -0.6018 -0.3993
vn -0.6916 -0.6018 0.3993
vn -0.0000 -0.6018 0.7986
vn 0.6916 -0.6018 0.3993
vn 0.6916 -0.6018 -0.3993
s off
f 8/1/1 1/2/1 2/3/1 9/4/1
f 9/5/2 2/3/2 3/6/2 10/7/2
f 10/8/3 3/6/3 5/9/3 11/10/3
f 11/11/4 5/9/4 6/12/4 12/13/4
f 2/3/5 1/2/5 7/14/5 6/12/5 5/9/5 3/6/5
f 12/15/6 6/12/6 7/14/6 13/16/6
f 13/17/7 7/14/7 1/2/7 8/18/7
f 4/19/8 13/20/8 8/21/8
f 4/22/9 12/23/9 13/24/9
f 4/25/10 11/26/10 12/27/10
f 4/28/11 10/29/11 11/30/11
f 4/31/12 9/32/12 10/33/12
f 4/34/13 8/35/13 9/36/13
